<?xml version="1.0" encoding="UTF-8" standalone="no"?>
<svg
   xmlns:dc="http://purl.org/dc/elements/1.1/"
   xmlns:cc="http://creativecommons.org/ns#"
   xmlns:rdf="http://www.w3.org/1999/02/22-rdf-syntax-ns#"
   xmlns:svg="http://www.w3.org/2000/svg"
   xmlns="http://www.w3.org/2000/svg"
   xmlns:sodipodi="http://sodipodi.sourceforge.net/DTD/sodipodi-0.dtd"
   xmlns:inkscape="http://www.inkscape.org/namespaces/inkscape"
   width="256"
   height="256"
   viewBox="0 0 256 256"
   version="1.1"
   preserveAspectRatio="xMidYMid"
   id="svg1541"
   sodipodi:docname="twitter.svg"
   inkscape:version="0.92.4 (f8dce91, 2019-08-02)">
  <metadata
     id="metadata1547">
    <rdf:RDF>
      <cc:Work
         rdf:about="">
        <dc:format>image/svg+xml</dc:format>
        <dc:type
           rdf:resource="http://purl.org/dc/dcmitype/StillImage" />
        <dc:title></dc:title>
      </cc:Work>
    </rdf:RDF>
  </metadata>
  <defs
     id="defs1545" />
  <sodipodi:namedview
     pagecolor="#ffffff"
     bordercolor="#666666"
     borderopacity="1"
     objecttolerance="10"
     gridtolerance="10"
     guidetolerance="10"
     inkscape:pageopacity="0"
     inkscape:pageshadow="2"
     inkscape:window-width="1244"
     inkscape:window-height="901"
     id="namedview1543"
     showgrid="false"
     inkscape:zoom="2"
     inkscape:cx="132.96656"
     inkscape:cy="95.32821"
     inkscape:window-x="1456"
     inkscape:window-y="121"
     inkscape:window-maximized="0"
     inkscape:current-layer="svg1541" />
  <rect
     style="fill:#55acee;fill-opacity:1;stroke:none;stroke-width:1.1252563"
     id="rect2093"
     width="256"
     height="256"
     x="0"
     y="7.1054274e-15"
     ry="18" />
  <path
     style="fill:#ffffff;fill-opacity:1;stroke-width:0.81436163"
     inkscape:connector-curvature="0"
     id="path1537"
     d="m 232.00002,63.195834 c -7.65305,3.409582 -15.87749,5.713973 -24.50974,6.75037 8.81102,-5.305829 15.57698,-13.707106 18.76328,-23.717244 -8.24498,4.912208 -17.37784,8.479993 -27.09804,10.402998 -7.7847,-8.331726 -18.87511,-13.538188 -31.14863,-13.538188 -23.56787,0 -42.67505,19.194069 -42.67505,42.868515 0,3.359893 0.37813,6.631906 1.10547,9.769376 C 90.971027,93.943951 59.527187,76.876942 38.479924,50.94092 c -3.673228,6.331529 -5.777652,13.695638 -5.777652,21.551956 0,14.872672 7.534379,27.994324 18.984687,35.681734 -6.99572,-0.22242 -13.575271,-2.15077 -19.329338,-5.36163 -0.0031,0.17886 -0.0031,0.35847 -0.0031,0.53884 0,20.77084 14.709654,38.09771 34.231478,42.03543 -3.581171,0.97985 -7.351023,1.5034 -11.243367,1.5034 -2.749595,0 -5.423108,-0.26827 -8.02815,-0.76889 5.429959,17.03182 21.189537,29.42586 39.863054,29.77207 -14.604661,11.49751 -33.00504,18.35105 -52.99781,18.35105 -3.444224,0 -6.841275,-0.20254 -10.179744,-0.59845 18.88502,12.16319 41.316211,19.2598 65.415124,19.2598 78.492044,0 121.414364,-65.32313 121.414364,-121.972886 0,-1.858795 -0.0411,-3.707665 -0.12326,-5.545833 8.33702,-6.044144 15.5724,-13.594743 21.29375,-22.19168" />
  <ellipse
     style="fill:#ffffff;fill-opacity:1;stroke:none"
     id="path2095"
     cx="92.25"
     cy="308.5"
     rx="69.25"
     ry="25.5" />
</svg>
